<svg version="1.0" xmlns="http://www.w3.org/2000/svg"
     width="160.000000pt" height="160.000000pt" viewBox="0 0 160.000000 160.000000" stroke="currentColor"
     preserveAspectRatio="xMidYMid meet">
  <g transform="translate(0.000000,160.000000) scale(0.100000,-0.100000)"
     fill="#000000" >
    <path d="M877 1536 c-61 -22 -94 -59 -106 -120 -5 -24 -12 -29 -39 -31 -41 -3
-78 -27 -103 -68 -16 -26 -19 -44 -16 -93 l4 -61 -33 -12 c-42 -15 -84 -65
-84 -99 0 -19 -7 -30 -22 -37 -35 -15 -60 -74 -49 -113 8 -28 7 -32 -9 -32
-11 0 -36 -16 -56 -37 -36 -36 -36 -37 -31 -100 6 -79 -7 -110 -49 -118 -23
-4 -36 -14 -47 -38 -104 -226 -109 -256 -52 -306 l36 -31 282 -2 c693 -4 814
-3 837 5 14 4 37 20 53 35 38 36 35 79 -13 203 -42 108 -62 139 -90 139 -10 0
-28 8 -41 18 -20 17 -21 22 -12 61 15 57 1 102 -43 140 -19 17 -38 31 -42 31
-5 0 -8 21 -8 47 1 42 -2 49 -31 68 -28 17 -32 26 -33 62 0 36 -5 46 -37 72
-21 17 -52 34 -69 37 -31 6 -31 6 -30 67 1 75 -23 116 -84 144 -43 20 -49 36
-24 71 24 35 70 54 122 50 37 -2 47 0 50 13 8 44 -57 61 -131 35z m-112 -208
c36 -16 31 -35 -12 -45 -47 -11 -66 -42 -51 -85 13 -37 7 -43 -20 -18 -15 14
-22 33 -22 58 0 52 26 85 77 101 1 1 14 -4 28 -11z m91 -7 c41 -25 58 -69 50
-126 -9 -54 -29 -70 -109 -87 -50 -11 -58 -10 -76 6 -20 19 -20 19 -1 44 11
13 20 35 20 47 0 13 15 34 41 55 32 25 40 38 36 56 -5 29 -1 29 39 5z m-183
-225 c18 -13 42 -27 55 -31 25 -7 27 -16 10 -48 -19 -32 -28 -37 -75 -37 -56
0 -89 16 -103 51 -14 33 -9 44 34 70 39 24 41 24 79 -5z m322 -5 c16 -9 31
-25 33 -34 5 -25 -51 -77 -83 -77 -28 0 -44 -25 -27 -42 16 -16 77 -1 111 28
l29 24 23 -31 c18 -26 20 -37 13 -67 -11 -43 -44 -69 -104 -81 -25 -5 -65 -15
-90 -21 -77 -20 -308 7 -373 43 -50 28 -66 76 -43 132 l16 38 23 -21 c50 -47
177 -72 191 -37 8 21 23 19 29 -4 2 -10 17 -27 31 -36 38 -25 82 -10 112 36
20 32 21 39 9 55 -14 18 -15 18 -30 -3 -22 -32 -45 -53 -56 -53 -16 0 -49 64
-46 89 4 29 18 38 69 46 20 3 47 14 60 25 26 22 54 20 103 -9z m-511 -286 c19
-15 57 -30 87 -35 30 -5 81 -14 115 -20 141 -24 346 6 425 62 13 9 23 8 43 -6
68 -44 53 -117 -31 -159 -43 -22 -66 -25 -213 -31 -206 -8 -441 6 -475 28 -32
21 -53 54 -61 94 -6 27 -2 36 26 62 18 16 36 30 42 30 5 0 24 -11 42 -25z
m-84 -196 c0 -5 -9 -9 -20 -9 -19 0 -27 20 -13 33 7 8 33 -11 33 -24z m806 7
c3 -8 15 -17 27 -20 14 -4 18 -9 11 -13 -25 -18 -21 -49 16 -160 22 -65 40
-124 40 -130 0 -8 -13 -13 -30 -13 -25 0 -30 4 -30 24 0 22 -45 215 -57 246
-3 8 -6 22 -5 30 1 9 -1 10 -4 3 -4 -9 -11 -9 -30 -1 -21 10 -28 8 -49 -12
-32 -30 -32 -68 0 -185 14 -49 25 -93 25 -97 0 -5 -15 -8 -34 -8 l-33 0 -6 73
c-4 39 -16 105 -27 144 -11 40 -20 75 -20 78 0 3 14 5 32 5 35 0 141 31 146
42 6 13 22 9 28 -6z m-804 -37 c21 13 21 12 -2 -16 -18 -20 -33 -65 -54 -156
-28 -117 -32 -127 -53 -127 -27 0 -27 -1 -9 47 47 129 67 205 61 234 -7 29 -6
30 14 17 17 -11 25 -10 43 1z m145 1 c20 0 24 -4 19 -17 -12 -30 -46 -217 -46
-250 0 -34 -10 -41 -50 -35 l-27 4 31 118 31 119 -23 30 c-29 40 -28 45 9 37
17 -3 43 -6 56 -6z m-234 -14 c3 -8 -8 -52 -24 -98 -17 -46 -34 -101 -38 -123
-7 -43 -26 -52 -45 -22 -9 13 -6 31 13 80 12 34 32 88 43 120 20 55 40 72 51
43z m1011 -83 c59 -155 58 -151 33 -176 l-22 -22 -6 40 c-4 22 -21 80 -38 129
-34 98 -38 126 -17 126 8 0 28 -39 50 -97z m-599 -58 l0 -145 -43 0 c-42 0
-43 1 -38 28 26 129 36 208 31 232 -6 28 -4 30 22 30 l28 0 0 -145z m170 113
c-5 -29 22 -194 40 -239 8 -20 -10 -28 -52 -22 l-33 5 0 113 c0 62 -3 127 -6
144 -6 29 -5 31 25 31 31 0 32 -1 26 -32z m-258 6 c5 -14 -19 -186 -34 -237
-5 -19 -48 -21 -48 -2 0 10 32 189 41 233 5 26 32 30 41 6z m171 -122 c2 -125
1 -132 -17 -132 -26 0 -28 10 -30 138 -2 119 1 135 27 130 15 -3 17 -22 20
-136z m162 116 c13 -32 50 -230 44 -240 -3 -4 -13 -8 -23 -8 -15 0 -22 20 -41
119 -12 66 -20 126 -17 135 9 23 26 20 37 -6z m179 -15 c6 -21 22 -80 36 -131
14 -51 25 -95 25 -97 0 -3 -11 -5 -25 -5 -20 0 -26 7 -35 43 -6 23 -20 75 -31
115 -14 54 -16 78 -9 92 16 30 28 24 39 -17z m-692 10 c4 -9 -6 -68 -22 -130
-26 -106 -30 -113 -53 -113 -27 0 -28 -9 6 125 11 44 23 92 26 108 7 30 33 36
43 10z"/>
    <path d="M215 1319 c-4 -13 -2 -27 7 -35 12 -13 17 -12 31 4 10 11 15 26 11
36 -9 23 -41 20 -49 -5z"/>
  </g>
</svg>
